<svg xmlns="http://www.w3.org/2000/svg" viewBox="0 0 1200 220"><defs><style>.cls-1{fill:#1c3550;}.cls-2{fill:#c1cfdb;}.cls-3{fill:#25476b;}.cls-4{fill:#3b6889;}.cls-5{opacity:0.2;}.cls-6{fill:#82a2ba;}.cls-7{fill:#d3dde5;}.cls-8{fill:#e1e9ef;}.cls-9{fill:#95b5c9;}.cls-10{fill:#6991af;}.cls-11{fill:#abbac6;}.cls-12{fill:#a4b3ba;}.cls-13{fill:#2b5377;}.cls-14{fill:#ccd8e2;}</style></defs><title>banner</title><g id="Layer_2" data-name="Layer 2"><rect class="cls-1" width="1200" height="220"/><polygon class="cls-2" points="72.44 31.82 68.7 31.31 66.16 34.1 65.49 30.39 62.05 28.84 65.38 27.05 65.79 23.3 68.51 25.91 72.2 25.15 70.57 28.54 72.44 31.82"/><polygon class="cls-2" points="130.84 87.45 127.1 86.94 124.56 89.73 123.89 86.02 120.46 84.47 123.78 82.68 124.19 78.93 126.92 81.54 130.61 80.78 128.97 84.17 130.84 87.45"/><polygon class="cls-2" points="29.49 80.03 22.9 79.14 18.43 84.05 17.25 77.52 11.2 74.78 17.05 71.64 17.78 65.04 22.57 69.63 29.08 68.28 26.19 74.27 29.49 80.03"/><polygon class="cls-2" points="81.27 72.7 78.01 76.37 79.19 81.14 74.69 79.18 70.53 81.77 71 76.89 67.24 73.72 72.04 72.67 73.88 68.12 76.37 72.35 81.27 72.7"/><polygon class="cls-2" points="141.36 18.23 137.6 22.47 138.97 27.97 133.77 25.71 128.96 28.7 129.51 23.06 125.18 19.41 130.71 18.19 132.84 12.94 135.71 17.83 141.36 18.23"/><polygon class="cls-2" points="32.64 11.98 30.14 14.8 31.05 18.46 27.59 16.95 24.39 18.95 24.75 15.2 21.87 12.77 25.55 11.95 26.97 8.46 28.88 11.71 32.64 11.98"/><polygon class="cls-2" points="55.16 106.33 52.66 109.16 53.56 112.82 50.11 111.31 46.91 113.3 47.27 109.55 44.39 107.12 48.07 106.31 49.49 102.81 51.4 106.06 55.16 106.33"/><polygon class="cls-2" points="402.63 30.86 398.89 30.35 396.36 33.14 395.69 29.43 392.25 27.87 395.57 26.09 395.98 22.34 398.71 24.95 402.4 24.18 400.76 27.58 402.63 30.86"/><polygon class="cls-2" points="146.56 154.36 142.82 153.85 140.28 156.64 139.61 152.93 136.17 151.38 139.49 149.59 139.91 145.84 142.63 148.45 146.32 147.69 144.69 151.08 146.56 154.36"/><polygon class="cls-2" points="221.67 73.75 217.93 73.24 215.4 76.03 214.72 72.32 211.29 70.77 214.61 68.98 215.02 65.24 217.75 67.84 221.44 67.08 219.8 70.47 221.67 73.75"/><polygon class="cls-2" points="280.07 129.38 276.33 128.87 273.8 131.66 273.13 127.95 269.69 126.4 273.01 124.61 273.42 120.87 276.15 123.47 279.84 122.71 278.2 126.11 280.07 129.38"/><polygon class="cls-2" points="347.32 70.26 343.58 69.75 341.05 72.54 340.38 68.83 336.94 67.28 340.26 65.49 340.67 61.74 343.4 64.35 347.09 63.59 345.45 66.98 347.32 70.26"/><polygon class="cls-2" points="103.43 137.37 96.85 136.48 92.38 141.39 91.2 134.85 85.14 132.12 91 128.98 91.72 122.38 96.52 126.97 103.03 125.62 100.14 131.6 103.43 137.37"/><polygon class="cls-2" points="299.74 29.21 293.16 28.32 288.69 33.23 287.51 26.7 281.45 23.96 287.3 20.82 288.03 14.22 292.83 18.81 299.33 17.46 296.45 23.45 299.74 29.21"/><polygon class="cls-2" points="230.5 114.63 227.25 118.31 228.43 123.07 223.93 121.11 219.76 123.7 220.23 118.82 216.48 115.66 221.27 114.6 223.12 110.05 225.6 114.28 230.5 114.63"/><polygon class="cls-2" points="290.6 60.16 286.84 64.4 288.2 69.9 283.01 67.64 278.2 70.63 278.75 64.99 274.41 61.35 279.94 60.12 282.07 54.87 284.94 59.76 290.6 60.16"/><polygon class="cls-2" points="186.4 98.5 182.64 102.74 184 108.24 178.81 105.97 174 108.97 174.54 103.33 170.21 99.68 175.74 98.46 177.87 93.21 180.74 98.09 186.4 98.5"/><polygon class="cls-2" points="204.39 148.26 201.89 151.09 202.8 154.75 199.34 153.24 196.14 155.24 196.5 151.48 193.62 149.05 197.3 148.24 198.72 144.75 200.63 148 204.39 148.26"/><polygon class="cls-2" points="67.44 150.13 64.94 152.95 65.84 156.61 62.39 155.1 59.19 157.09 59.55 153.34 56.67 150.91 60.35 150.1 61.77 146.61 63.68 149.86 67.44 150.13"/><polygon class="cls-2" points="34.6 186.79 33 188.6 33.58 190.93 31.38 189.97 29.33 191.24 29.57 188.85 27.72 187.3 30.07 186.78 30.98 184.55 32.2 186.62 34.6 186.79"/><polygon class="cls-2" points="108.11 50.11 106.51 51.91 107.09 54.25 104.89 53.29 102.84 54.56 103.08 52.17 101.23 50.62 103.58 50.1 104.49 47.87 105.71 49.94 108.11 50.11"/><polygon class="cls-2" points="177.08 173.59 175.49 175.39 176.07 177.73 173.86 176.77 171.82 178.04 172.05 175.65 170.21 174.09 172.56 173.58 173.46 171.35 174.68 173.42 177.08 173.59"/><polygon class="cls-2" points="197.06 204.62 195.46 206.42 196.04 208.75 193.83 207.79 191.79 209.06 192.02 206.67 190.18 205.12 192.53 204.6 193.44 202.37 194.66 204.44 197.06 204.62"/><polygon class="cls-2" points="181.74 46.12 180.14 47.92 180.72 50.26 178.51 49.29 176.47 50.56 176.71 48.17 174.86 46.62 177.21 46.1 178.12 43.87 179.34 45.95 181.74 46.12"/><polygon class="cls-2" points="233.94 29.94 232.34 31.74 232.92 34.08 230.72 33.11 228.67 34.39 228.91 31.99 227.06 30.44 229.41 29.92 230.32 27.69 231.54 29.77 233.94 29.94"/><polygon class="cls-2" points="285.94 161.83 284.35 163.63 284.92 165.97 282.72 165.01 280.67 166.28 280.91 163.88 279.07 162.33 281.42 161.81 282.32 159.59 283.54 161.66 285.94 161.83"/><polygon class="cls-2" points="451.96 19.72 450.36 21.52 450.94 23.86 448.73 22.9 446.69 24.17 446.92 21.77 445.08 20.22 447.43 19.7 448.34 17.48 449.56 19.55 451.96 19.72"/><polygon class="cls-2" points="253.91 97.26 250.17 96.75 247.63 99.54 246.96 95.83 243.52 94.28 246.84 92.49 247.26 88.74 249.98 91.35 253.67 90.59 252.04 93.98 253.91 97.26"/><polygon class="cls-2" points="115.05 186.55 111.32 186.05 108.78 188.84 108.11 185.12 104.67 183.57 107.99 181.79 108.41 178.04 111.13 180.65 114.82 179.88 113.19 183.28 115.05 186.55"/></g><g id="Layer_1" data-name="Layer 1"><path class="cls-3" d="M813.2,0h0l-.44,1.26c-.93,2.58-2,5.27-3.1,8a3.68,3.68,0,0,1-.15.35,169.76,169.76,0,0,1-9.31,19.11q-1.85,3.29-4,6.62c-1.34,2.13-2.77,4.27-4.26,6.42-.3.43-.61.87-.93,1.3-.6.86-1.23,1.71-1.86,2.56-.33.45-.66.89-1,1.33h0c-.55.73-1.12,1.47-1.71,2.2h0c-2,2.57-4.18,5.14-6.46,7.67-1.58,1.75-3.16,3.42-4.74,5-.55.55-1.09,1.08-1.64,1.6-2.75,2.64-5.51,5-8.3,7.26-3.14,2.49-6.3,4.76-9.5,6.85q-2.18,1.42-4.38,2.75c-3.26,2-6.57,3.82-9.91,5.59-1.76.94-3.53,1.84-5.31,2.75s-3.56,1.79-5.36,2.68c-3.15,1.57-6.35,3.15-9.59,4.79a230.19,230.19,0,0,0-31.15,18.39c-3.13,2.23-6.3,4.64-9.51,7.27-4.15,3.4-8.61,7.16-13.32,11.32-.94.82-1.89,1.67-2.85,2.53L661.82,138,660,139.69h0c-2.06,1.9-4.17,3.86-6.31,5.91l-.18.18q-2.14,2-4.34,4.2c-.68.67-1.37,1.34-2.07,2q-3.52,3.5-7.17,7.26l-.83.85c-.67.72-1.37,1.44-2.06,2.17l-.49.51-1.63,1.73c-.15.16-.3.33-.46.49-5.34,5.72-10.82,11.85-16.34,18.4q-5.19,6.12-10.42,12.73l-1,1.25-5.28-.52-18.52-1.83c-3.33-.33-6.66-.65-10-1l-36.49-3.6-43.19-4.25-6.89-.68h0l-5.23-.52-139,35H317a141.31,141.31,0,0,1,24.52-57.93c7-9.65,17.8-24.57,37.17-35.16,14.53-8,18-4.76,56.05-18.84,17.64-6.52,25.77-10.79,32.11-19.37,6.87-9.31,2.69-13,8.6-24.34,7.54-14.47,21-21.17,39.25-30.29,11.09-5.53,20.8-8.87,40.43-15,13.26-4.11,19.93-6,28.21-8C612.05,4.32,636.71,1.6,665.08,0Z"/><path class="cls-4" d="M867.4,29.63c-282.8-6.3-362.55,21.69-374,52.8-1.65,4.48-4.59,16.38-15,28.33-25.94,29.84-61.55,19.53-93.79,40.79-14.22,9.37-32.19,27.84-42.51,68.45h241.8v-8.72l37,0a386.34,386.34,0,0,1,73.91-75.62C761.59,84,830.11,66.33,869.36,59.51Q868.39,44.57,867.4,29.63Z"/><g class="cls-5"><path class="cls-3" d="M508.43,122.29c0,2.21-3.85,4-8.54,4s-8.54-1.81-8.54-4Z"/><path class="cls-3" d="M541.62,127.61c0,2.21-3.86,4-8.54,4s-8.54-1.81-8.54-4Z"/><path class="cls-3" d="M594.61,120.29c0,2.2-3.85,4-8.54,4s-8.54-1.81-8.54-4Z"/><path class="cls-3" d="M569.65,131.88c0,1.81-3.17,3.3-7,3.3s-7-1.49-7-3.3Z"/><path class="cls-3" d="M591,106.22c0,1.81-3.17,3.3-7,3.3s-7-1.49-7-3.3Z"/><path class="cls-3" d="M492.07,182.31c0,1.81-3.17,3.3-7,3.3s-7-1.49-7-3.3Z"/><path class="cls-3" d="M499.09,151.24c0,1.81-3.17,3.3-7,3.3s-7-1.49-7-3.3Z"/><path class="cls-3" d="M530.5,143.61c0,2.2-3.85,4-8.54,4s-8.54-1.81-8.54-4Z"/><path class="cls-3" d="M497.29,135.64c0,1.34-2.36,2.45-5.22,2.45s-5.22-1.11-5.22-2.45Z"/><path class="cls-3" d="M566.81,116.49c0,1.35-2.36,2.46-5.22,2.46s-5.22-1.11-5.22-2.46Z"/><path class="cls-3" d="M534.27,113c0,1.34-2.36,2.45-5.22,2.45s-5.22-1.11-5.22-2.45Z"/><path class="cls-3" d="M562.78,143.88c0,1.35-2.35,2.46-5.22,2.46s-5.22-1.11-5.22-2.46Z"/><path class="cls-3" d="M585.31,147c0,1.34-2.35,2.45-5.22,2.45s-5.22-1.11-5.22-2.45Z"/><path class="cls-3" d="M473.7,142.66c0,2.2-3.85,4-8.54,4s-8.54-1.82-8.54-4Z"/><path class="cls-3" d="M569.77,70.49c0,2.2-3.85,4-8.54,4s-8.54-1.82-8.54-4Z"/><path class="cls-3" d="M603,75.81c0,2.2-3.86,4-8.54,4s-8.54-1.82-8.54-4Z"/><path class="cls-3" d="M656,68.48c0,2.21-3.85,4-8.54,4s-8.54-1.81-8.54-4Z"/><path class="cls-3" d="M631,80.08c0,1.81-3.17,3.3-7,3.3s-7-1.49-7-3.3Z"/><path class="cls-3" d="M652.29,54.42c0,1.81-3.17,3.3-7,3.3s-7-1.49-7-3.3Z"/><path class="cls-3" d="M560.43,99.44c0,1.81-3.17,3.3-7,3.3s-7-1.49-7-3.3Z"/><path class="cls-3" d="M591.84,91.8c0,2.21-3.85,4-8.54,4s-8.54-1.81-8.54-4Z"/><path class="cls-3" d="M558.63,83.83c0,1.35-2.36,2.46-5.22,2.46s-5.22-1.11-5.22-2.46Z"/><path class="cls-3" d="M628.15,64.69c0,1.34-2.36,2.45-5.22,2.45s-5.22-1.11-5.22-2.45Z"/><path class="cls-3" d="M595.61,61.15c0,1.35-2.35,2.46-5.22,2.46s-5.22-1.11-5.22-2.46Z"/><path class="cls-3" d="M624.12,92.08c0,1.34-2.35,2.45-5.22,2.45s-5.22-1.11-5.22-2.45Z"/><path class="cls-3" d="M646.65,95.22c0,1.35-2.35,2.46-5.22,2.46s-5.22-1.11-5.22-2.46Z"/><path class="cls-3" d="M535,90.86c0,2.2-3.85,4-8.54,4s-8.54-1.81-8.54-4Z"/><path class="cls-3" d="M713.81,43.81c0,2.2-3.86,4-8.54,4s-8.54-1.81-8.54-4Z"/><path class="cls-3" d="M747,49.13c0,2.2-3.86,4-8.54,4s-8.54-1.81-8.54-4Z"/><path class="cls-3" d="M800,41.8c0,2.2-3.85,4-8.54,4s-8.54-1.82-8.54-4Z"/><path class="cls-3" d="M775,53.4c0,1.81-3.17,3.3-7,3.3s-7-1.49-7-3.3Z"/><path class="cls-3" d="M796.32,27.74c0,1.81-3.17,3.3-7,3.3s-7-1.49-7-3.3Z"/><path class="cls-3" d="M704.47,72.76c0,1.81-3.17,3.3-7,3.3s-7-1.49-7-3.3Z"/><path class="cls-3" d="M735.88,65.12c0,2.2-3.85,4-8.54,4s-8.54-1.82-8.54-4Z"/><path class="cls-3" d="M702.67,57.15c0,1.35-2.36,2.46-5.23,2.46s-5.22-1.11-5.22-2.46Z"/><path class="cls-3" d="M772.19,38c0,1.34-2.36,2.45-5.22,2.45s-5.22-1.11-5.22-2.45Z"/><path class="cls-3" d="M739.65,34.47c0,1.35-2.36,2.46-5.22,2.46s-5.22-1.11-5.22-2.46Z"/><path class="cls-3" d="M768.16,65.4c0,1.34-2.36,2.45-5.22,2.45s-5.22-1.11-5.22-2.45Z"/><path class="cls-3" d="M790.69,68.54c0,1.35-2.35,2.46-5.22,2.46s-5.22-1.11-5.22-2.46Z"/><path class="cls-3" d="M679.08,64.18c0,2.2-3.85,4-8.54,4s-8.54-1.81-8.54-4Z"/><path class="cls-3" d="M471,198.38c0,1.83-3.21,3.34-7.11,3.34s-7.11-1.51-7.11-3.34Z"/><path class="cls-3" d="M495.39,208c0,2-2.79,3.65-6.18,3.65S483,210,483,208Z"/><path class="cls-3" d="M557.13,196.37c0,1.65-2.88,3-6.38,3s-6.39-1.35-6.39-3Z"/><path class="cls-3" d="M532.17,208c0,1.81-3.17,3.3-7,3.3s-7-1.49-7-3.3Z"/><path class="cls-3" d="M569.8,208.15c0,1.81-3.16,3.3-7,3.3s-7-1.49-7-3.3Z"/><path class="cls-3" d="M459.81,211.72c0,1.35-2.36,2.45-5.22,2.45s-5.23-1.1-5.23-2.45Z"/><path class="cls-3" d="M384.22,213c0,1.34-2.36,2.45-5.22,2.45s-5.22-1.11-5.22-2.45Z"/><path class="cls-3" d="M414.9,208.39c0,1.35-2.36,2.45-5.22,2.45s-5.22-1.1-5.22-2.45Z"/><path class="cls-3" d="M443.63,144.39c0,1.34-2.36,2.45-5.22,2.45s-5.22-1.11-5.22-2.45Z"/><path class="cls-3" d="M404.46,194.36c0,2-3.51,3.66-7.78,3.66s-7.78-1.65-7.78-3.66Z"/></g><path class="cls-6" d="M601.44,159.81v45.91H577.11c0-.47-.1-.94-.18-1.39a25.42,25.42,0,0,0-4-10.25,23.92,23.92,0,0,0-19.7-10.93,23.38,23.38,0,0,0-16.79,7.33,25.59,25.59,0,0,0-6.9,13.85c-.07.45-.14.92-.18,1.39H504.74c-.09-.47-.18-.94-.28-1.39a33.05,33.05,0,0,0-11.2-18.1,24.6,24.6,0,0,0-2.61-1.95,29.66,29.66,0,0,0-31.19-1.39,33.15,33.15,0,0,0-16.08,21.44c-.1.45-.19.92-.28,1.39H418.48c0-.47-.1-.94-.18-1.39-1.76-11.57-11.7-21.18-23.69-21.18s-21.92,9.61-23.69,21.18c-.07.45-.14.92-.18,1.39H346.4V159.81Z"/><rect class="cls-6" x="346.36" y="143.89" width="4.22" height="15.92"/><rect class="cls-6" x="370.85" y="143.89" width="4.21" height="15.92"/><rect class="cls-6" x="395.33" y="143.89" width="4.21" height="15.92"/><rect class="cls-6" x="419.82" y="143.89" width="4.21" height="15.92"/><rect class="cls-6" x="444.31" y="143.89" width="4.21" height="15.92"/><rect class="cls-6" x="468.79" y="143.89" width="4.21" height="15.92"/><rect class="cls-6" x="493.28" y="143.89" width="4.21" height="15.92"/><rect class="cls-6" x="517.77" y="143.89" width="4.21" height="15.92"/><rect class="cls-6" x="542.25" y="143.89" width="4.21" height="15.92"/><rect class="cls-6" x="566.74" y="143.89" width="4.21" height="15.92"/><rect class="cls-6" x="591.23" y="143.89" width="4.21" height="15.92"/><path class="cls-2" d="M350.57,146.87v12.94h20.28V146.87Zm8,3.54h-5.79a1.14,1.14,0,0,1,0-2.27h5.79a1.14,1.14,0,1,1,0,2.27Zm10,0h-5.79a1.14,1.14,0,0,1,0-2.27h5.79a1.14,1.14,0,0,1,0,2.27Z"/><path class="cls-2" d="M375.06,146.87v12.94h20.27V146.87Zm8,3.54h-5.79a1.14,1.14,0,0,1,0-2.27h5.79a1.14,1.14,0,1,1,0,2.27Zm10,0H387.3a1.14,1.14,0,0,1,0-2.27h5.79a1.14,1.14,0,1,1,0,2.27Z"/><path class="cls-2" d="M399.54,146.87v12.94h20.28V146.87Zm8,3.54h-5.79a1.14,1.14,0,0,1,0-2.27h5.79a1.14,1.14,0,0,1,0,2.27Zm10,0h-5.79a1.14,1.14,0,0,1,0-2.27h5.79a1.14,1.14,0,1,1,0,2.27Z"/><path class="cls-2" d="M424,146.87v12.94H444.3V146.87Zm8,3.54h-5.79a1.14,1.14,0,0,1,0-2.27h5.79a1.14,1.14,0,1,1,0,2.27Zm10,0h-5.79a1.14,1.14,0,0,1,0-2.27h5.79a1.14,1.14,0,0,1,0,2.27Z"/><path class="cls-2" d="M448.51,146.87v12.94h20.28V146.87Zm8,3.54h-5.79a1.14,1.14,0,0,1,0-2.27h5.79a1.14,1.14,0,0,1,0,2.27Zm10,0h-5.79a1.14,1.14,0,0,1,0-2.27h5.79a1.14,1.14,0,1,1,0,2.27Z"/><path class="cls-2" d="M473,146.87v12.94h20.27V146.87Zm8,3.54h-5.79a1.14,1.14,0,0,1,0-2.27H481a1.14,1.14,0,1,1,0,2.27Zm10,0h-5.79a1.14,1.14,0,0,1,0-2.27H491a1.14,1.14,0,0,1,0,2.27Z"/><path class="cls-2" d="M497.48,146.87v12.94h20.28V146.87Zm8,3.54h-5.79a1.14,1.14,0,0,1,0-2.27h5.79a1.14,1.14,0,0,1,0,2.27Zm10,0h-5.79a1.14,1.14,0,0,1,0-2.27h5.79a1.14,1.14,0,1,1,0,2.27Z"/><path class="cls-2" d="M522,146.87v12.94h20.28V146.87Zm8,3.54H524.2a1.14,1.14,0,0,1,0-2.27H530a1.14,1.14,0,0,1,0,2.27Zm10,0h-5.8a1.14,1.14,0,0,1,0-2.27H540a1.14,1.14,0,0,1,0,2.27Z"/><path class="cls-2" d="M546.45,146.87v12.94h20.27V146.87Zm8,3.54h-5.79a1.14,1.14,0,0,1,0-2.27h5.79a1.14,1.14,0,1,1,0,2.27Zm10,0h-5.79a1.14,1.14,0,0,1,0-2.27h5.79a1.14,1.14,0,0,1,0,2.27Z"/><path class="cls-2" d="M570.93,146.87v12.94h20.28V146.87Zm8,3.54h-5.79a1.14,1.14,0,0,1,0-2.27H579a1.14,1.14,0,0,1,0,2.27Zm10,0h-5.79a1.14,1.14,0,0,1,0-2.27H589a1.14,1.14,0,1,1,0,2.27Z"/><path class="cls-2" d="M595.42,146.87v12.94h20.27V146.87Zm8,3.54h-5.79a1.14,1.14,0,0,1,0-2.27h5.79a1.14,1.14,0,1,1,0,2.27Zm10,0h-5.79a1.14,1.14,0,0,1,0-2.27h5.79a1.14,1.14,0,0,1,0,2.27Z"/><rect class="cls-7" x="346.36" y="159.81" width="254.2" height="3.12"/><rect class="cls-6" x="486" y="54.38" width="41.52" height="44.15"/><rect class="cls-6" x="673.83" y="53.5" width="38.34" height="44.15"/><rect class="cls-2" x="527.52" y="54.38" width="19.14" height="44.15"/><rect class="cls-2" x="654.81" y="54.38" width="19.14" height="44.15"/><polygon class="cls-7" points="486 51.34 486 58.86 534.98 54.62 661.64 54.62 713.07 58.86 713.07 51.34 661.64 46.54 534.98 46.54 486 51.34"/><rect class="cls-6" x="486.01" y="35.39" width="4.21" height="15.92"/><rect class="cls-6" x="510.49" y="33.01" width="4.21" height="15.92"/><rect class="cls-6" x="534.98" y="30.62" width="4.21" height="15.92"/><path class="cls-2" d="M490.23,38.37V51.31l20.26-2.38V36Zm11.26.09,6.48-.77a.76.76,0,0,1,.85.67v.08a.77.77,0,0,1-.67.76l-6.48.78a.77.77,0,0,1-.85-.67s0-.06,0-.1A.78.78,0,0,1,501.49,38.46Zm-10.6,2s0-.06,0-.1a.76.76,0,0,1,.68-.75l6.47-.77a.77.77,0,0,1,.86.67v.08a.78.78,0,0,1-.67.76l-6.49.78A.78.78,0,0,1,490.89,40.5Zm18.27,7.14-16.42,2a.78.78,0,0,1-.85-.67v-.08a.77.77,0,0,1,.67-.77l16.42-2a.77.77,0,0,1,.84.67s0,.06,0,.1A.75.75,0,0,1,509.16,47.64Z"/><rect class="cls-8" x="497.02" y="42.18" width="6.61" height="2.94" rx="1.29" transform="translate(-1.65 59.55) rotate(-6.8)"/><path class="cls-2" d="M514.71,36v13L535,46.53V33.59Zm10.59.87a.79.79,0,0,1,.67-.78l6.49-.77a.76.76,0,0,1,.84.67s0,.06,0,.09a.76.76,0,0,1-.68.75l-6.47.77a.77.77,0,0,1-.86-.66Zm-9.93,1.25V38a.77.77,0,0,1,.67-.76l6.48-.78a.76.76,0,0,1,.85.67s0,.07,0,.1a.77.77,0,0,1-.68.75l-6.48.77A.75.75,0,0,1,515.37,38.1Zm18.28,7.16-16.42,2a.75.75,0,0,1-.85-.67s0-.06,0-.09a.77.77,0,0,1,.67-.75l16.42-2a.76.76,0,0,1,.85.66s0,.07,0,.1A.78.78,0,0,1,533.65,45.26Z"/><path class="cls-6" d="M522.52,36.48a.76.76,0,0,1,.85.67s0,.07,0,.1a.77.77,0,0,1-.68.75l-6.48.77a.75.75,0,0,1-.85-.67V38a.77.77,0,0,1,.67-.76Z"/><rect class="cls-8" x="521.5" y="39.79" width="6.61" height="2.94" rx="1.29" transform="translate(-1.19 62.43) rotate(-6.8)"/><path class="cls-2" d="M539.19,33.59V46.53h20.28V33.59Zm1.87,1.46h6.53a.76.76,0,0,1,.76.77.75.75,0,0,1-.76.75h-6.53a.75.75,0,0,1-.76-.75A.76.76,0,0,1,541.06,35.05Zm16.54,10H541.06a.75.75,0,0,1-.76-.75.76.76,0,0,1,.76-.77H557.6a.76.76,0,0,1,.76.77A.75.75,0,0,1,557.6,45.07Zm0-8.5h-6.53a.76.76,0,0,1-.77-.75.77.77,0,0,1,.77-.77h6.53a.76.76,0,0,1,.76.77A.75.75,0,0,1,557.6,36.57Z"/><rect class="cls-8" x="545.99" y="38.59" width="6.61" height="2.94" rx="1.29"/><rect class="cls-6" x="559.47" y="30.62" width="4.21" height="15.92"/><path class="cls-2" d="M563.68,33.59V46.53H584V33.59Zm1.88,1.46h6.52a.76.76,0,0,1,.76.77.75.75,0,0,1-.76.75h-6.52a.75.75,0,0,1-.77-.75A.76.76,0,0,1,565.56,35.05Zm16.53,10H565.56a.75.75,0,0,1-.77-.75.76.76,0,0,1,.77-.77h16.53a.77.77,0,0,1,.76.77A.76.76,0,0,1,582.09,45.07Zm0-8.5h-6.53a.75.75,0,0,1-.76-.75.76.76,0,0,1,.76-.77h6.53a.77.77,0,0,1,.76.77A.76.76,0,0,1,582.09,36.57Z"/><rect class="cls-8" x="570.48" y="38.59" width="6.61" height="2.94" rx="1.29"/><rect class="cls-6" x="583.96" y="30.62" width="4.21" height="15.92"/><path class="cls-2" d="M588.17,33.59V46.53h20.28V33.59Zm1.88,1.46h6.52a.76.76,0,0,1,.76.77.75.75,0,0,1-.76.75h-6.52a.75.75,0,0,1-.77-.75A.76.76,0,0,1,590.05,35.05Zm16.52,10H590.05a.75.75,0,0,1-.77-.75.76.76,0,0,1,.77-.77h16.52a.77.77,0,0,1,.77.77A.76.76,0,0,1,606.57,45.07Zm0-8.5h-6.52a.75.75,0,0,1-.76-.75.76.76,0,0,1,.76-.77h6.52a.77.77,0,0,1,.77.77A.76.76,0,0,1,606.57,36.57Z"/><rect class="cls-8" x="594.97" y="38.59" width="6.61" height="2.94" rx="1.29"/><rect class="cls-6" x="608.45" y="30.62" width="4.21" height="15.92"/><path class="cls-2" d="M612.66,33.59V46.53h20.28V33.59Zm1.87,1.46h6.53a.76.76,0,0,1,.76.77.75.75,0,0,1-.76.75h-6.53a.75.75,0,0,1-.76-.75A.76.76,0,0,1,614.53,35.05Zm16.53,10H614.53a.75.75,0,0,1-.76-.75.76.76,0,0,1,.76-.77h16.53a.77.77,0,0,1,.77.77A.76.76,0,0,1,631.06,45.07Zm0-8.5h-6.53a.75.75,0,0,1-.75-.75.76.76,0,0,1,.75-.77h6.53a.77.77,0,0,1,.77.77A.76.76,0,0,1,631.06,36.57Z"/><rect class="cls-8" x="619.46" y="38.59" width="6.61" height="2.94" rx="1.29"/><rect class="cls-6" x="632.94" y="30.62" width="4.21" height="15.92"/><path class="cls-2" d="M637.15,33.59V46.53h20.28V33.59ZM639,35.05h6.53a.76.76,0,0,1,.76.77.75.75,0,0,1-.76.75H639a.75.75,0,0,1-.76-.75A.76.76,0,0,1,639,35.05Zm16.53,10H639a.75.75,0,0,1-.76-.75.76.76,0,0,1,.76-.77h16.53a.76.76,0,0,1,.77.77A.75.75,0,0,1,655.55,45.07Zm0-8.5H649a.74.74,0,0,1-.75-.75.75.75,0,0,1,.75-.77h6.53a.76.76,0,0,1,.77.77A.75.75,0,0,1,655.55,36.57Z"/><rect class="cls-8" x="643.95" y="38.59" width="6.61" height="2.94" rx="1.29"/><rect class="cls-6" x="706.4" y="35.39" width="4.21" height="15.92" transform="translate(1417.01 86.71) rotate(-180)"/><rect class="cls-6" x="681.91" y="33.01" width="4.21" height="15.92" transform="translate(1368.03 81.93) rotate(-180)"/><rect class="cls-6" x="657.42" y="30.62" width="4.21" height="15.92" transform="translate(1319.06 77.16) rotate(-180)"/><path class="cls-2" d="M686.12,36v13l20.27,2.38V38.37Zm1.68,2.38a.76.76,0,0,1,.84-.67l6.49.77a.78.78,0,0,1,.67.77v.08A.78.78,0,0,1,695,40l-6.49-.78a.76.76,0,0,1-.67-.76S687.8,38.39,687.8,38.36Zm16.92,10.58a.77.77,0,0,1-.85.67l-16.41-2a.76.76,0,0,1-.68-.74s0-.07,0-.1a.78.78,0,0,1,.85-.67l16.42,2a.76.76,0,0,1,.67.75S704.72,48.9,704.72,48.94Zm1-8.44a.78.78,0,0,1-.84.67l-6.49-.78a.77.77,0,0,1-.68-.76s0-.06,0-.08a.76.76,0,0,1,.85-.67l6.48.77a.76.76,0,0,1,.68.76S705.73,40.47,705.73,40.5Z"/><rect class="cls-8" x="692.99" y="42.18" width="6.61" height="2.94" rx="1.29" transform="translate(1382.53 169.44) rotate(-173.2)"/><path class="cls-2" d="M661.64,33.59V46.53l20.27,2.4V36ZM663.31,36a.78.78,0,0,1,.85-.67l6.48.77a.78.78,0,0,1,.67.78v.07a.75.75,0,0,1-.85.66L664,36.81a.76.76,0,0,1-.67-.75Zm16.93,10.57a.76.76,0,0,1-.85.67l-16.42-2a.77.77,0,0,1-.67-.76s0-.06,0-.1a.76.76,0,0,1,.85-.66l16.41,2a.77.77,0,0,1,.68.75S680.24,46.51,680.24,46.54Zm1-8.44a.75.75,0,0,1-.85.67L673.92,38a.77.77,0,0,1-.68-.75s0-.06,0-.1a.76.76,0,0,1,.84-.67l6.49.78a.77.77,0,0,1,.67.76Z"/><rect class="cls-8" x="668.51" y="39.79" width="6.61" height="2.94" rx="1.29" transform="translate(1334.01 161.78) rotate(-173.2)"/><path class="cls-2" d="M1195.59,0a11.29,11.29,0,0,1-1.13,1.21A12.46,12.46,0,0,1,1192,3V6.66l-3.56.24C1172.23,8,1155.07,9.32,1137,9.3c-18.7,0-36.32-1.56-53-2.64V3a13.48,13.48,0,0,1-2.77-2.14,10.71,10.71,0,0,1-.81-.89h9.68c23.05,2.81,66.12,3.34,94.43,0"/><rect class="cls-9" x="1058.14" y="31.12" width="107.97" height="47.55" transform="translate(2224.25 109.8) rotate(-180)"/><path class="cls-10" d="M1084,3l-25.87,28.08h108L1192,3C1166.11,8.36,1095.87,7.1,1084,3Z"/><path class="cls-3" d="M1200,11.75V78.67h-33.89V31.13l.12-.14c.83-.9,1.67-1.8,2.5-2.71l3.93-4.26L1188.42,6.9,1192,3h0Z"/><path class="cls-11" d="M1061.87,0c-.22.27-.48.55-.76.84a12.84,12.84,0,0,1-2.55,2h0l-2,.54c-.26.05-.52.12-.81.17l-.86.17-.92.15L1053,4l-.52.08-3.4.43-16.92,1.2-1.69.06-5.21.16h0l-1.78,0-1.8,0-1.82,0h-.9l-4.61,0h-3.65c-1.28,0-2.57,0-3.86,0-2.38,0-4.74-.1-7.08-.18-1.07,0-2.13-.07-3.19-.12L995,5.64c-1,0-2.09-.1-3.12-.16s-2.06-.11-3.06-.18l-3-.21q-1.49-.11-2.91-.24l-2.81-.27c-1.84-.19-3.61-.39-5.29-.61-.8-.11-1.57-.22-2.32-.34l-.33,0c-.64-.1-1.25-.19-1.85-.31q-.42-.06-.84-.15c-.55-.09-1.09-.2-1.61-.3h0a11.41,11.41,0,0,1-2.28-1.68A9.78,9.78,0,0,1,964.54,0h13.74c23.63,2,55,1.8,73.37,0Z"/><rect class="cls-3" x="991.71" y="28.69" width="90.68" height="43.81"/><path class="cls-4" d="M1082.39,28.69q-11.92-12.93-23.83-25.88h0c-10.92,3.75-66.84,4.91-90.67,0q11.91,12.94,23.83,25.88h90.68Z"/><polygon class="cls-2" points="967.88 2.81 967.88 2.81 967.88 2.81 967.88 2.81 967.88 2.81"/><path class="cls-2" d="M971.15,6.37l-3.27-3.56h0L944.05,28.69V72.5h47.66V28.69h0Z"/><path class="cls-11" d="M893.36,0c-7,1.25-14.74,2.34-23.29,3.05h0c-6.52.55-13.47.87-20.81.88h-3.32c-2.49,0-4.92-.11-7.32-.21a247.05,247.05,0,0,1-25.83-2.44C810.05.88,807.45.45,805,0Z"/><polygon class="cls-3" points="922.41 23.72 922.41 23.72 922.41 23.72 922.41 23.72"/><rect class="cls-3" x="822.94" y="23.72" width="99.48" height="43.81"/><polygon class="cls-4" points="922.41 23.72 922.41 23.72 922.41 23.72 922.41 23.72"/><path class="cls-4" d="M922.41,23.72H822.94l-1.39-1.49c-4-4.27-8-8.41-12-12.58Q804.88,4.88,800.3,0h12.9C821.81.73,831.11,1.1,841,1.14h1c1.62,0,3.25,0,4.89,0h0l2.4,0C857.94,1,869.65.61,880,0h20.52a3.31,3.31,0,0,1,.27.26l3,3.25c.81.88,1.61,1.76,2.42,2.63Z"/><rect class="cls-4" x="822.94" y="23.72" width="99.48"/><path class="cls-2" d="M822.94,23.72V67.53H775.28V23.72Q786.19,11.86,797.12,0h4l8.56,9.3,11.9,12.92Z"/><path class="cls-2" d="M950,0l0,0V3.65l-3.55.24c-12.8.86-26.21,1.87-40.18,2.25-3.7.1-7.44.16-11.21.15-17.24,0-33.56-1.32-49.11-2.37L842,3.65V0l0,0Z"/><rect class="cls-9" x="816.12" y="28.12" width="107.97" height="47.55" transform="translate(1740.21 103.8) rotate(-180)"/><path class="cls-10" d="M842,0,816.12,28.12h108L950,0C924.09,5.36,853.84,4.1,842,0Z"/><path class="cls-3" d="M950,0Q937,14.09,924.09,28.12V75.67h51.73V28.12Z"/><path class="cls-2" d="M1200,23.19V30c-9.83.58-20,1-30.4,1l-3.37,0c-8.11-.08-16-.44-23.74-.89-3.13-.18-6.25-.38-9.32-.59l-6.14-.43h0l-10.44-.71V24.75a12.91,12.91,0,0,1-2.25-1.64l-.52-.5a13.5,13.5,0,0,1-2.15-2.82,103.09,103.09,0,0,0,14.67,2.33h0c4,.42,8.57.77,13.42,1.06,10,.59,21.39.89,32.9.84C1181.92,24,1191.26,23.71,1200,23.19Z"/><rect class="cls-2" x="1090.7" y="52.84" width="107.97" height="47.55" transform="translate(2289.37 153.23) rotate(-180)"/><path class="cls-10" d="M1200,27.47V51.39c-.44.49-.89,1-1.33,1.45h-108l20-21.71c.32-.36.64-.7,1-1.05l2.45-2.67,2.46-2.66a52,52,0,0,0,9.46,1.69h0c2.7.29,5.8.57,9.22.8l2.3.15,2.56.15c8.52.46,18.45.73,28.6.74h0C1179.36,28.3,1190.24,28.05,1200,27.47Z"/><path class="cls-3" d="M1200,51.39v49h-1.33V52.84C1199.11,52.35,1199.56,51.88,1200,51.39Z"/><rect class="cls-3" x="1166.41" y="66.78" width="23.26" height="33.62"/><path class="cls-4" d="M1189.66,66.78h-23.25l-18.29-19.86h23.26Z"/><path class="cls-2" d="M1148.12,46.92l-18.28,19.86v33.61h36.57V66.78Z"/><path class="cls-2" d="M1142.47,19.79c-30.78,6.3-99.06,5-117.8,0a13.25,13.25,0,0,0,2.15,2.82,13.62,13.62,0,0,0,2.76,2.13v3.63c16.72,1.09,34.34,2.62,53,2.64,19.35,0,37.7-1.51,54.94-2.64V24.74a12.37,12.37,0,0,0,2.49-1.82A12.6,12.6,0,0,0,1142.47,19.79Z"/><rect class="cls-9" x="1003.72" y="52.84" width="107.97" height="47.55" transform="translate(2115.41 153.23) rotate(-180)"/><path class="cls-10" d="M1029.59,24.75q-12.94,14-25.87,28.09h108l25.87-28.09C1111.69,30.08,1041.45,28.81,1029.59,24.75Z"/><path class="cls-3" d="M1137.56,24.75l-25.87,28.09v47.55h51.73V52.84Z"/><path class="cls-11" d="M1032.27,29.34a13.51,13.51,0,0,1-2.59,3.34.94.94,0,0,1-.1.1,14.43,14.43,0,0,1-2.56,1.85,92.9,92.9,0,0,1-32.7,4.49c-8.41-.38-15.66-3-21.35-4.66l-.63-.18.06-4.14a162.54,162.54,0,0,0,26,2.4A162,162,0,0,0,1027,30.31l.24,0C1029,30,1030.67,29.67,1032.27,29.34Z"/><polygon class="cls-3" points="1054.06 63.78 1054.06 63.78 1054.06 63.78 1054.06 63.78"/><rect class="cls-3" x="999.98" y="63.78" width="54.07" height="50.75"/><polygon class="cls-4" points="1054.06 63.78 1054.06 63.78 1054.06 63.78 1054.06 63.78"/><path class="cls-4" d="M1054.05,63.78l-27-29.15a160.58,160.58,0,0,1-20.52,1.87,161.9,161.9,0,0,1-34.12-2.69l27.6,30h54.07Z"/><path class="cls-2" d="M920.9,27.35a92.67,92.67,0,0,0,32.7,4.48,92.49,92.49,0,0,0,21.95-3.65,8.16,8.16,0,0,0,2.84-2.11,8,8,0,0,0,1.83-4A88.61,88.61,0,0,1,970,25.18a98.87,98.87,0,0,1-40.08.56,106.62,106.62,0,0,1-14.3-3.68,13.55,13.55,0,0,0,5.25,5.29Z"/><polygon class="cls-3" points="1002.58 57.33 1002.58 57.33 1002.58 57.33 1002.58 57.33"/><rect class="cls-4" x="948.5" y="57.33" width="54.07" height="57.21"/><polygon class="cls-4" points="1002.58 57.33 1002.58 57.33 1002.58 57.33 1002.58 57.33"/><path class="cls-10" d="M1002.58,57.33l-27-29.15a112.46,112.46,0,0,1-22,2.93,112.49,112.49,0,0,1-32.64-3.76l27.6,30h54.08Z"/><rect class="cls-4" x="948.5" y="57.33" width="54.07"/><path class="cls-2" d="M924.69,31.47h0L948.5,57.33h0L924.69,31.47Z"/><path class="cls-2" d="M924.69,31.47h0c-1.26-1.38-2.53-2.75-3.79-4.12h0q-13.81,15-27.61,30V94.15H948.5V57.33h0Z"/><path class="cls-2" d="M920.9,27.35h0c1.26,1.37,2.53,2.74,3.79,4.12h0Z"/><path class="cls-2" d="M948.5,57.33h0L924.69,31.47h0Z"/><polygon class="cls-2" points="920.9 27.35 920.9 27.35 920.9 27.35 920.9 27.35 920.9 27.35"/><path class="cls-2" d="M924.69,31.47h0c-1.26-1.38-2.53-2.75-3.79-4.12h0Z"/><path class="cls-12" d="M867,29.56v4.25l-27.61,30V59.17L864.44,32l2.26-2.45Z"/><path class="cls-11" d="M921.64,34.63a92.26,92.26,0,0,1-21.95,3.66,92.82,92.82,0,0,1-26.9-2.8c-2.13-.55-4.07-1.12-5.8-1.68A14.16,14.16,0,0,1,864.44,32l-.1-.09a13.63,13.63,0,0,1-2.59-3.34c1.59.33,3.24.67,5,1l.29.06.41.07a168,168,0,0,0,30,2.67,169.85,169.85,0,0,0,24.23-1.8Z"/><polygon class="cls-3" points="948.67 63.78 948.67 63.78 948.67 63.78 948.67 63.78"/><rect class="cls-3" x="894.6" y="63.78" width="54.07" height="50.75"/><polygon class="cls-4" points="948.67 63.78 948.67 63.78 948.67 63.78 948.67 63.78"/><path class="cls-4" d="M948.67,63.78l-27-29.15a160.58,160.58,0,0,1-20.53,1.87A162,162,0,0,1,867,33.81l27.61,30h54.07Z"/><path class="cls-2" d="M870.79,37.93,867,33.81h0l-27.6,30v50.76H894.6V63.78h0Z"/><rect class="cls-13" x="948.5" y="57.33" width="54.07" height="4.34"/><rect class="cls-1" x="956.15" y="61.67" width="36.52" height="52.87"/><rect class="cls-10" x="988.51" y="61.67" width="7.43" height="52.87"/><path class="cls-1" d="M907.49,70.94h7A3.06,3.06,0,0,1,917.5,74V94.45a0,0,0,0,1,0,0H904.43a0,0,0,0,1,0,0V74A3.06,3.06,0,0,1,907.49,70.94Z"/><path class="cls-1" d="M930.87,70.94h7A3.06,3.06,0,0,1,940.89,74V94.45a0,0,0,0,1,0,0H927.81a0,0,0,0,1,0,0V74A3.06,3.06,0,0,1,930.87,70.94Z"/><path class="cls-1" d="M1011.83,70.94h7a3.06,3.06,0,0,1,3.06,3.06V94.45a0,0,0,0,1,0,0h-13.07a0,0,0,0,1,0,0V74A3.06,3.06,0,0,1,1011.83,70.94Z"/><path class="cls-1" d="M1035.22,70.94h7a3.06,3.06,0,0,1,3.06,3.06V94.45a0,0,0,0,1,0,0h-13.07a0,0,0,0,1,0,0V74A3.06,3.06,0,0,1,1035.22,70.94Z"/><path class="cls-11" d="M894.59,59.17v4.62l-27.6-30V29.56l.41.07,5.39,5.86Z"/><path class="cls-11" d="M1054.06,59.17v4.62l-27-29.16V30.31l.24,0,2.32,2.51Z"/><rect class="cls-2" x="721.29" y="63.46" width="107.97" height="51.07" transform="translate(1550.55 178) rotate(-180)"/><polygon class="cls-10" points="721.29 63.46 829.26 63.46 855.13 35.38 747.15 35.38 721.29 63.46"/><path class="cls-3" d="M855.13,35.38,829.26,63.46v51.08H881V63.46Z"/><rect class="cls-2" x="1070.15" y="72.69" width="23.26" height="33.62" transform="translate(2163.56 179) rotate(180)"/><path class="cls-10" d="M1088.44,52.84h23.25l-18.28,19.85h-23.26Z"/><path class="cls-3" d="M1111.69,52.84v53.47h-18.28V72.69Z"/><rect class="cls-2" x="1097.79" y="93.91" width="91.2" height="39.23" transform="translate(2286.79 227.04) rotate(-180)"/><path class="cls-10" d="M1200,70.73V82c-.44.48-.89,1-1.33,1.45l-9,9.77c-.22.25-.44.49-.67.73H1097.8l2-2.16,1.66-1.8,3-3.22,7.28-7.9.13-.15,7.32-7.94Z"/><path class="cls-3" d="M1200,82v51.19h-11V93.9c.23-.24.45-.48.67-.73l9-9.77C1199.11,82.91,1199.56,82.43,1200,82Z"/><path class="cls-11" d="M757.18,50.94a250.62,250.62,0,0,0,44.47-4,11,11,0,0,0,2.61-2.67,11.16,11.16,0,0,0,1.41-2.78,373.91,373.91,0,0,1-46.41,3.17,372.91,372.91,0,0,1-50.76-3.17,13.13,13.13,0,0,0,1.65,3,12.78,12.78,0,0,0,2.36,2.46A250.71,250.71,0,0,0,757.18,50.94Z"/><polygon class="cls-3" points="830.36 70.72 830.36 70.72 830.36 70.72 830.36 70.72"/><rect class="cls-3" x="730.88" y="70.72" width="99.48" height="43.81"/><polygon class="cls-4" points="830.36 70.72 830.36 70.72 830.36 70.72 830.36 70.72"/><path class="cls-4" d="M830.36,70.72,808.75,47.26a5.17,5.17,0,0,0-4.48-1.63c-11.53,1.49-33.18,2.25-47,2.46-18.88.28-36.07-.61-50.48-2.7,8,8.63,16.19,16.71,24.13,25.33h99.48Z"/><rect class="cls-4" x="730.88" y="70.72" width="99.48"/><path class="cls-2" d="M706.21,45.76l-23,25v43.82h47.66V70.72l-23-25A1.16,1.16,0,0,0,706.21,45.76Z"/><polygon class="cls-2" points="707.05 44.84 707.05 44.84 707.05 44.84 707.05 44.84 707.05 44.84"/><path class="cls-11" d="M1135.28,94.1a201.76,201.76,0,0,0,35.67-4,11.06,11.06,0,0,0,4-5.45,306.33,306.33,0,0,1-43.4,3.21,306.48,306.48,0,0,1-45-3.21,13.19,13.19,0,0,0,4,5.44A201.36,201.36,0,0,0,1135.28,94.1Z"/><polygon class="cls-3" points="1199.79 113.34 1199.79 113.34 1199.79 113.34 1199.79 113.34"/><rect class="cls-3" x="1109.11" y="113.34" width="90.68" height="43.81"/><polygon class="cls-4" points="1199.79 113.34 1199.79 113.34 1199.79 113.34 1199.79 113.34"/><path class="cls-4" d="M1199.66,113.89l-22.2-24.11a4.54,4.54,0,0,0-4-1.41,317.14,317.14,0,0,1-38.18,2.88A318,318,0,0,1,1085.15,88L1109,113.89h90.68Z"/><rect class="cls-4" x="1109.11" y="113.34" width="90.68"/><path class="cls-14" d="M1084.44,88.38l-23,25v43.81h47.66V113.34l-23-25A1.13,1.13,0,0,0,1084.44,88.38Z"/><polygon class="cls-2" points="1085.28 87.46 1085.28 87.46 1085.28 87.46 1085.28 87.46 1085.28 87.46"/><path class="cls-2" d="M1083.57,90.72c-30.78,6.29-99.06,5-117.81,0a13.58,13.58,0,0,0,4.92,5v3.62c16.72,1.09,34.33,2.62,53,2.64,19.35,0,37.7-1.51,54.93-2.64V95.67a13.21,13.21,0,0,0,2.49-1.82A12.8,12.8,0,0,0,1083.57,90.72Z"/><rect class="cls-2" x="944.82" y="123.76" width="107.97" height="47.55" transform="translate(1997.61 295.07) rotate(-180)"/><path class="cls-10" d="M970.68,95.67l-25.86,28.09h108l25.86-28.09C1052.79,101,982.54,99.74,970.68,95.67Z"/><path class="cls-3" d="M1078.65,95.67l-25.86,28.09v47.55h51.73V123.76Z"/><rect class="cls-3" x="921.27" y="136.28" width="100.23" height="43.12"/><polygon class="cls-4" points="1021.5 136.28 921.27 136.28 897.82 110.81 998.05 110.81 1021.5 136.28"/><path class="cls-2" d="M897.82,110.81l-23.46,25.47V179.4h46.91V136.28Z"/><rect class="cls-2" x="1059.62" y="159.95" width="107.97" height="51.07" transform="translate(2227.22 370.97) rotate(-180)"/><polygon class="cls-10" points="1059.62 159.95 1167.6 159.95 1193.46 131.86 1085.49 131.86 1059.62 159.95"/><path class="cls-3" d="M1200,139V211h-32.4V160c.86-.93,1.71-1.87,2.58-2.8l22.1-24,1.18-1.28c.4.42.78.85,1.18,1.28l5.15,5.59Z"/><rect class="cls-3" x="1097.63" y="167.9" width="65.03" height="43.12"/><polygon class="cls-4" points="1162.66 167.9 1097.63 167.9 1074.18 142.43 1139.21 142.43 1162.66 167.9"/><path class="cls-2" d="M1076.85,130.42c-30.78,6.3-99.07,5-117.81,0a13.58,13.58,0,0,0,4.92,5V139c16.71,1.09,34.33,2.62,53,2.64,19.36,0,37.71-1.52,54.94-2.64v-3.63a12.37,12.37,0,0,0,2.49-1.82A12.68,12.68,0,0,0,1076.85,130.42Z"/><rect class="cls-2" x="938.09" y="163.47" width="107.97" height="47.55" transform="translate(1984.16 374.49) rotate(-180)"/><path class="cls-10" d="M964,135.38q-12.93,14-25.87,28.09h108l25.86-28.09C1046.07,140.71,975.82,139.44,964,135.38Z"/><path class="cls-3" d="M1071.93,135.38l-25.86,28.09V211h51.72V163.47Z"/><path class="cls-10" d="M826.93,139.68H668l-24.26-6.5c71.32,0,142.91-1.59,214.23-1.59C847.68,133.76,837.16,137.52,826.93,139.68Z"/><path class="cls-3" d="M823.54,130q-18.21-21.37-36.43-42.76L750.69,130Z"/><polygon class="cls-11" points="823.87 123.77 823.87 131.01 787.11 88.67 787.12 81.43 823.87 123.77"/><rect class="cls-2" x="648.32" y="77.58" width="138.8" height="11.09"/><path class="cls-2" d="M653.18,76.47a17.15,17.15,0,0,1-.68-2.35,3,3,0,0,0,.43-1.88,2.23,2.23,0,0,0-2.24-1.91c-1.23.13-2.37,1.81-2.37,3v14L656.76,82A15,15,0,0,1,653.18,76.47Z"/><rect class="cls-2" x="607.71" y="135.65" width="135.79" height="4.05"/><rect class="cls-9" x="607.71" y="145.61" width="135.79" height="60.85"/><rect class="cls-3" x="743.5" y="121.82" width="83.53" height="84.64"/><path class="cls-2" d="M782.25,76.47a15.84,15.84,0,0,0,.68-2.35,2.93,2.93,0,0,1-.42-1.88,2.23,2.23,0,0,1,2.24-1.91c1.22.13,2.36,1.81,2.36,3v14L778.67,82A14.92,14.92,0,0,0,782.25,76.47Z"/><path class="cls-10" d="M757,121.42h0l30.15-32.75H648.32l-30.16,32.75-34.81,11.76a55.86,55.86,0,0,0,9.28,3.94,54.91,54.91,0,0,0,15,2.56l151.25,0a133.69,133.69,0,0,0,21.28-1.9,133.51,133.51,0,0,0,18.79-4.62Z"/><polygon class="cls-4" points="780.46 80.33 654.97 80.33 657.31 85.93 776.42 85.93 780.46 80.33"/><path class="cls-2" d="M583.35,133.18l36.84-12.51v-5.24a66,66,0,0,1-35.07,11.46,62.56,62.56,0,0,1-15.47-1.61Q576.51,129.23,583.35,133.18Z"/><polygon class="cls-11" points="750.36 123.77 750.36 131.01 787.11 88.67 787.11 81.43 750.36 123.77"/><polygon class="cls-11" points="611.56 123.77 611.56 131.01 648.32 88.67 648.32 81.43 611.56 123.77"/><path class="cls-4" d="M857.92,131.59c-8.92,1.55-20,4.29-32.39,4.1a173.3,173.3,0,0,1-26.59-2.51l-42-11.76h60.33C830.73,125.34,844.46,127.67,857.92,131.59Z"/><path class="cls-2" d="M798.94,133.18l-42-11.76v-5.24a157.51,157.51,0,0,0,36,10,158.15,158.15,0,0,0,22.16,1.78Z"/><rect class="cls-4" x="634.47" y="145.61" width="79.2" height="60.85"/><path class="cls-2" d="M857.92,131.59c-7.14-1.08-14.85-2.56-23-4.58-7-1.72-13.43-3.63-19.39-5.62l-.13-3.63a156.86,156.86,0,0,0,36.36,8.66,157.47,157.47,0,0,0,22.21,1C868.62,129.32,863.24,129.65,857.92,131.59Z"/><rect class="cls-3" x="607.71" y="139.7" width="135.79" height="5.91"/><rect class="cls-3" x="637.04" y="148.25" width="12.14" height="56.79"/><rect class="cls-3" x="699.16" y="148.25" width="12.14" height="56.79"/><rect class="cls-3" x="651.72" y="152.89" width="10.27" height="49.49"/><rect class="cls-3" x="663.2" y="152.89" width="10.27" height="49.49"/><rect class="cls-3" x="674.67" y="152.89" width="10.27" height="49.49"/><rect class="cls-3" x="686.14" y="152.89" width="10.27" height="49.49"/><rect class="cls-1" x="701.23" y="150.52" width="8" height="27.12"/><rect class="cls-1" x="639.11" y="150.58" width="8" height="27.12"/><polygon class="cls-1" points="696.03 150.52 654.63 150.52 652.1 139.7 693.5 139.7 696.03 150.52"/><rect class="cls-2" x="829.93" y="177.09" width="99.74" height="42.91" transform="translate(1759.6 397.09) rotate(-180)"/><polygon class="cls-10" points="829.93 177.09 929.67 177.09 953.01 151.75 853.27 151.75 829.93 177.09"/><path class="cls-3" d="M953,151.74l-23.34,25.35V220h46.68V177.09Z"/><path class="cls-11" d="M834.61,94.62c24.2,5,36.3,3.81,47.4,0h0a12.77,12.77,0,0,0,2.59-2,12.6,12.6,0,0,0,2-2.63A83.72,83.72,0,0,1,865,94.16a92,92,0,0,1-28-3.09c-3-.79-5.49-1.61-7.26-2.23a16.38,16.38,0,0,0,2.8,4A15.66,15.66,0,0,0,834.61,94.62Z"/><path class="cls-4" d="M906.2,120.9h0L882,94.62h0c-1.14.39-2.93.95-5.16,1.47s-11,2.49-29.33.46c-3.2-.36-7.63-.94-12.91-1.93l24.2,26.28H906.2Z"/><polygon class="cls-2" points="834.61 94.63 834.61 94.63 834.61 94.62 834.61 94.62 834.61 94.63"/><path class="cls-2" d="M837.93,98.24c-1.1-1.21-2.21-2.41-3.32-3.62h0q-12.11,13.13-24.2,26.27V220h48.4V120.9h0Z"/><path class="cls-2" d="M723.79,156.18c-22.69,4.09-109,4.62-123.59,0,.71.22.94,1.48,1.77,2.32a11.08,11.08,0,0,0,2.29,1.76v3c13.79.9,54.72,2.17,70.15,2.18,16,0,31.1-1.25,45.32-2.18v-3a10.61,10.61,0,0,0,2.06-1.5A10.81,10.81,0,0,0,723.79,156.18Z"/><rect class="cls-2" x="582.92" y="183.44" width="115.48" height="36.56" transform="translate(1281.31 403.44) rotate(-180)"/><path class="cls-10" d="M582.92,183.44H698.39l21.34-23.17c-21.34,4.39-105.69,3.35-115.47,0Q593.58,171.85,582.92,183.44Z"/><path class="cls-3" d="M719.73,160.27l-21.34,23.17V220h42.68V183.44Q730.41,171.85,719.73,160.27Z"/><path class="cls-11" d="M735.53,150.31c23.83,4.91,88.55,3.74,99.47,0h0a12.15,12.15,0,0,0,2.56-2,12.66,12.66,0,0,0,2-2.59c-15.24,3.92-80.18,4.57-108.54,0a11.48,11.48,0,0,0,4.52,4.56h0Z"/><polygon class="cls-3" points="858.84 176.19 858.84 176.19 858.84 176.19 858.84 176.19"/><polygon class="cls-3" points="906.21 120.9 858.81 120.9 858.81 176.19 759.36 176.19 759.36 220 858.84 220 858.84 219.99 906.21 219.99 906.21 120.9"/><polygon class="cls-4" points="858.84 176.19 858.84 176.19 858.84 176.19 858.84 176.19"/><path class="cls-4" d="M858.83,176.19,835,150.31h0c-6.22.71-15.12,1.58-25.85,2.08-16.16.75-28.58.32-41.66-.17-8.21-.31-19.09-.86-32-1.91l23.83,25.88h99.47Z"/><path class="cls-2" d="M738.8,153.87l-3.27-3.56h0l-23.83,25.88V220h47.67V176.19h0Z"/><path class="cls-1" d="M637.38,138h.76a.37.37,0,0,1,.37.37v2.89a0,0,0,0,1,0,0H637a0,0,0,0,1,0,0v-2.89A.37.37,0,0,1,637.38,138Z" transform="translate(89.4 -214.71) rotate(20.52)"/><rect class="cls-1" x="626.14" y="139.24" width="12.52" height="3.53" rx="0.86" transform="translate(89.56 -212.74) rotate(20.52)"/><path class="cls-1" d="M601.64,131.41H629a1.18,1.18,0,0,1,1.18,1.18v4.27A1.18,1.18,0,0,1,629,138H601.64a.59.59,0,0,1-.59-.59V132A.59.59,0,0,1,601.64,131.41Z" transform="translate(86.29 -207.25) rotate(20.52)"/><path class="cls-1" d="M596.51,125h10.27a1.4,1.4,0,0,1,1.4,1.4v6.48a1.4,1.4,0,0,1-1.4,1.4H596.51a.74.74,0,0,1-.74-.74v-7.81a.74.74,0,0,1,.74-.74Z" transform="translate(83.64 -202.8) rotate(20.52)"/><path class="cls-4" d="M621.52,138.09h0a1.74,1.74,0,0,1,1.74,1.74v6.72a0,0,0,0,1,0,0h-3.48a0,0,0,0,1,0,0v-6.72A1.74,1.74,0,0,1,621.52,138.09Z"/><path class="cls-4" d="M620.77,144.67h1.18a1.83,1.83,0,0,1,1.83,1.83v.34a0,0,0,0,1,0,0h-4.85a0,0,0,0,1,0,0v-.34A1.83,1.83,0,0,1,620.77,144.67Z"/><rect class="cls-4" x="620.64" y="146.31" width="1.43" height="23.22"/><polygon class="cls-4" points="630.22 168.67 628.84 169.04 622.26 146.69 623.64 146.31 630.22 168.67"/><polygon class="cls-4" points="612.49 168.67 613.87 169.04 620.45 146.69 619.07 146.31 612.49 168.67"/><rect class="cls-1" x="860.9" y="124.09" width="3.01" height="4.91"/><rect class="cls-1" x="860.9" y="130.05" width="3.01" height="4.91"/><rect class="cls-1" x="865.18" y="124.09" width="3.01" height="4.91"/><rect class="cls-1" x="865.18" y="130.05" width="3.01" height="4.91"/><rect class="cls-1" x="860.9" y="136.31" width="3.01" height="4.91"/><rect class="cls-1" x="860.9" y="142.27" width="3.01" height="4.91"/><rect class="cls-1" x="865.18" y="136.31" width="3.01" height="4.91"/><rect class="cls-1" x="865.18" y="142.27" width="3.01" height="4.91"/><rect class="cls-9" x="869.86" y="124.09" width="3.01" height="4.91"/><rect class="cls-9" x="869.86" y="130.05" width="3.01" height="4.91"/><rect class="cls-9" x="874.14" y="124.09" width="3.01" height="4.91"/><rect class="cls-9" x="874.14" y="130.05" width="3.01" height="4.91"/><rect class="cls-9" x="869.86" y="136.31" width="3.01" height="4.91"/><rect class="cls-9" x="869.86" y="142.27" width="3.01" height="4.91"/><rect class="cls-9" x="874.14" y="136.31" width="3.01" height="4.91"/><rect class="cls-9" x="874.14" y="142.27" width="3.01" height="4.91"/><rect class="cls-9" x="878.82" y="124.09" width="3.01" height="4.91"/><rect class="cls-9" x="878.82" y="130.05" width="3.01" height="4.91"/><rect class="cls-9" x="883.1" y="124.09" width="3.01" height="4.91"/><rect class="cls-9" x="883.1" y="130.05" width="3.01" height="4.91"/><rect class="cls-9" x="878.82" y="136.31" width="3.01" height="4.91"/><rect class="cls-9" x="878.82" y="142.27" width="3.01" height="4.91"/><rect class="cls-9" x="883.1" y="136.31" width="3.01" height="4.91"/><rect class="cls-9" x="883.1" y="142.27" width="3.01" height="4.91"/><rect class="cls-1" x="887.79" y="124.09" width="3.01" height="4.91"/><rect class="cls-1" x="887.79" y="130.05" width="3.01" height="4.91"/><rect class="cls-1" x="892.07" y="124.09" width="3.01" height="4.91"/><rect class="cls-1" x="892.07" y="130.05" width="3.01" height="4.91"/><rect class="cls-1" x="887.79" y="136.31" width="3.01" height="4.91"/><rect class="cls-1" x="887.79" y="142.27" width="3.01" height="4.91"/><rect class="cls-1" x="892.07" y="136.31" width="3.01" height="4.91"/><rect class="cls-1" x="892.07" y="142.27" width="3.01" height="4.91"/><rect class="cls-9" x="896.75" y="124.09" width="3.01" height="4.91"/><rect class="cls-9" x="896.75" y="130.05" width="3.01" height="4.91"/><rect class="cls-9" x="901.03" y="124.09" width="3.01" height="4.91"/><rect class="cls-9" x="901.03" y="130.05" width="3.01" height="4.91"/><rect class="cls-9" x="896.75" y="136.31" width="3.01" height="4.91"/><rect class="cls-9" x="896.75" y="142.27" width="3.01" height="4.91"/><rect class="cls-9" x="901.03" y="136.31" width="3.01" height="4.91"/><rect class="cls-9" x="901.03" y="142.27" width="3.01" height="4.91"/><path class="cls-11" d="M1200,176.17v4.53a147.19,147.19,0,0,1-17.53-2.24h0a11.79,11.79,0,0,1-4.52-4.57C1184.19,174.9,1191.79,175.65,1200,176.17Z"/><path class="cls-4" d="M1200,180.7v16.79q-7.14-7.74-14.26-15.48l-3.27-3.55A147.19,147.19,0,0,0,1200,180.7Z"/><polygon class="cls-2" points="1182.47 178.46 1182.47 178.46 1182.47 178.46 1182.47 178.46 1182.47 178.46"/><path class="cls-2" d="M1200,197.49V220h-41.36V204.34l4-4.38,1.78-1.92,3.16-3.44,0,0q2.25-2.43,4.49-4.87l10.34-11.23h0l3.27,3.55Q1192.87,189.77,1200,197.49Z"/><path class="cls-2" d="M1175.63,189c-30.78,6.29-99.06,5-117.8,0a13.45,13.45,0,0,0,4.91,5v3.63c16.72,1.09,34.33,2.62,53,2.64,19.35,0,37.7-1.52,54.94-2.64V194a13.4,13.4,0,0,0,2.49-1.82A12.78,12.78,0,0,0,1175.63,189Z"/><path class="cls-10" d="M1170.71,194l-3.11,3.38-.43.47c-1.51,1.63-3,3.27-4.51,4.89-1.34,1.46-2.67,2.92-4,4.37L1155,211l-8.27,9h-108c2.77-3,5.52-6,8.28-9l9.55-10.37,3-3.27c1.05-1.12,2.09-2.26,3.13-3.38,4.66,1.6,18.38,2.76,34.88,3.26h.17c21.57.64,47.85.16,64.86-2,1.75-.22,3.4-.46,4.94-.71h0C1168.72,194.38,1169.75,194.2,1170.71,194Z"/><path class="cls-3" d="M1194.66,220h-47.89l8.27-9,3.6-3.91c1.35-1.45,2.68-2.91,4-4.37,1.51-1.62,3-3.26,4.51-4.89l.43-.47,3.11-3.38q7.85,8.5,15.68,17Z"/><path class="cls-11" d="M962,196.42c23.83,4.91,79.76,3.74,90.68,0h0a11.88,11.88,0,0,0,2.55-2,12.22,12.22,0,0,0,2-2.59c-15.23,3.91-71.38,4.57-99.74,0a11.76,11.76,0,0,0,4.53,4.56Z"/><path class="cls-4" d="M1074.44,220H983.76c-2.48-2.68-4.94-5.36-7.41-8h0c-.29-.31-.57-.63-.86-.93L965.32,200c-1.09-1.18-2.18-2.37-3.28-3.55.69.14,1.42.28,2.16.41.59.11,1.21.21,1.83.31l1.7.25.92.13c1,.14,2,.27,3,.38.42.06.84.1,1.28.14l.46.06h.19l1,.11,1.06.11c.23,0,.45,0,.68.06l3.07.26c1.17.1,2.37.19,3.57.26l1.53.09c.51,0,1,.06,1.54.09s1,.06,1.55.09l1.58.07,1.58.07c1.06,0,2.12.09,3.2.12l3.22.1c1,0,2,0,3,.06s2.32.05,3.47.05h.89l4,0c2.16,0,4.31,0,6.42,0l1.36,0,2.24,0,1.55,0,1.1,0,1.73-.05.86,0,1.53-.06,2-.09,1.47-.07,1.61-.07,4.23-.26.72,0,1.89-.14c.47,0,1-.07,1.4-.12l.69-.06c.23,0,.46,0,.68-.06.42,0,.83-.07,1.23-.12.11,0,.22,0,.33,0l.94-.1.91-.1.89-.1.15,0,1.07-.14.46-.06.61-.09.93-.14.8-.13c.79-.13,1.5-.26,2.14-.41l.57-.14h0a4.42,4.42,0,0,0,.52-.14l.49-.13.58-.18c1.31,1.4,2.6,2.82,3.9,4.23l3,3.25,6.55,7.12Z"/><polygon class="cls-2" points="962.04 196.42 962.04 196.42 962.04 196.42 962.04 196.42 962.04 196.42"/><path class="cls-2" d="M983.76,220H940.32l8.27-9L962,196.42c1.1,1.18,2.19,2.37,3.28,3.55L975.49,211c.29.3.57.62.86.93h0C978.82,214.64,981.28,217.32,983.76,220Z"/><path class="cls-4" d="M346.4,143.89v27.84h0q0-4.39,0-8.8h0v-19Z"/><line class="cls-4" x1="1195.59" x2="1184.54"/></g></svg>